{
    "asset" : {
        "generator" : "Khronos glTF Blender I/O v1.0.1",
        "version" : "2.0"
    },
    "extensionsUsed" : [
        "KHR_lights_punctual"
    ],
    "extensionsRequired" : [
        "KHR_lights_punctual"
    ],
    "extensions" : {
        "KHR_lights_punctual" : {
            "lights" : [
                {
                    "color" : [
                        1,
                        1,
                        1
                    ],
                    "intensity" : 26.19999885559082,
                    "type" : "point",
                    "name" : "Point"
                },
                {
                    "color" : [
                        1,
                        1,
                        1
                    ],
                    "intensity" : 26.19999885559082,
                    "type" : "point",
                    "name" : "Point.001"
                }
            ]
        }
    },
    "scene" : 0,
    "scenes" : [
        {
            "name" : "Scene",
            "nodes" : [
                0,
                1,
                2,
                3
            ]
        }
    ],
    "nodes" : [
        {
            "mesh" : 0,
            "name" : "Suzanne"
        },
        {
            "extensions" : {
                "KHR_lights_punctual" : {
                    "light" : 0
                }
            },
            "name" : "Point",
            "rotation" : [
                -0.7071067690849304,
                0,
                0,
                0.7071067690849304
            ],
            "translation" : [
                -0.007689833175390959,
                1.0381205081939697,
                1.561025619506836
            ]
        },
        {
            "extensions" : {
                "KHR_lights_punctual" : {
                    "light" : 1
                }
            },
            "name" : "Point.001",
            "rotation" : [
                -0.7071067690849304,
                0,
                0,
                0.7071067690849304
            ],
            "translation" : [
                0.023069292306900024,
                -1.1227078437805176,
                1.5610255002975464
            ]
        },
        {
            "camera" : 0,
            "name" : "Camera",
            "translation" : [
                0,
                0,
                6.023663520812988
            ]
        }
    ],
    "cameras" : [
        {
            "name" : "Camera.001",
            "perspective" : {
                "yfov" : 0.39959652046304894,
                "zfar" : 1000,
                "znear" : 0.10000000149011612
            },
            "type" : "perspective"
        }
    ],
    "meshes" : [
        {
            "name" : "Suzanne",
            "primitives" : [
                {
                    "attributes" : {
                        "POSITION" : 0,
                        "NORMAL" : 1,
                        "TEXCOORD_0" : 2
                    },
                    "indices" : 3
                }
            ]
        }
    ],
    "accessors" : [
        {
            "bufferView" : 0,
            "componentType" : 5126,
            "count" : 10615,
            "max" : [
                1.328185796737671,
                0.9392361640930176,
                0.8224414587020874
            ],
            "min" : [
                -1.328185796737671,
                -0.971822202205658,
                -0.7782661318778992
            ],
            "type" : "VEC3"
        },
        {
            "bufferView" : 1,
            "componentType" : 5126,
            "count" : 10615,
            "type" : "VEC3"
        },
        {
            "bufferView" : 2,
            "componentType" : 5126,
            "count" : 10615,
            "type" : "VEC2"
        },
        {
            "bufferView" : 3,
            "componentType" : 5123,
            "count" : 47232,
            "type" : "SCALAR"
        }
    ],
    "bufferViews" : [
        {
            "buffer" : 0,
            "byteLength" : 127380,
            "byteOffset" : 0
        },
        {
            "buffer" : 0,
            "byteLength" : 127380,
            "byteOffset" : 127380
        },
        {
            "buffer" : 0,
            "byteLength" : 84920,
            "byteOffset" : 254760
        },
        {
            "buffer" : 0,
            "byteLength" : 94464,
            "byteOffset" : 339680
        }
    ],
    "buffers" : [
        {
            "byteLength" : 434144,
            "uri" : "AR_test.bin"
        }
    ]
}
