{
    "accessors" : [
        {
            "bufferView" : 0,
            "componentType" : 5123,
            "count" : 47232,
            "max" : [
                7957
            ],
            "min" : [
                0
            ],
            "type" : "SCALAR"
        },
        {
            "bufferView" : 1,
            "componentType" : 5126,
            "count" : 7958,
            "max" : [
                1.330683946609497,
                0.8449337482452393,
                0.8786324858665466
            ],
            "min" : [
                -1.330683946609497,
                -0.8301213383674622,
                -0.9259806871414185
            ],
            "type" : "VEC3"
        },
        {
            "bufferView" : 2,
            "componentType" : 5126,
            "count" : 7958,
            "max" : [
                0.99993896484375,
                0.999969482421875,
                0.999908447265625
            ],
            "min" : [
                -0.99993896484375,
                -0.99993896484375,
                -0.999969482421875
            ],
            "type" : "VEC3"
        }
    ],
    "asset" : {
        "generator" : "Khronos Blender glTF 2.0 exporter",
        "version" : "2.0"
    },
    "bufferViews" : [
        {
            "buffer" : 0,
            "byteLength" : 94464,
            "byteOffset" : 0,
            "target" : 34963
        },
        {
            "buffer" : 0,
            "byteLength" : 95496,
            "byteOffset" : 94464,
            "target" : 34962
        },
        {
            "buffer" : 0,
            "byteLength" : 95496,
            "byteOffset" : 189960,
            "target" : 34962
        }
    ],
    "buffers" : [
        {
            "byteLength" : 285456,
            "uri" : "camera.bin"
        }
    ],
    "cameras" : [
        {
            "name" : "Camera",
            "perspective" : {
                "aspectRatio" : 1.7777777777777777,
                "yfov" : 0.5033799372418416,
                "zfar" : 100.0,
                "znear" : 0.10000000149011612
            },
            "type" : "perspective"
        }
    ],
    "materials" : [
        {
            "name" : "Material.001",
            "pbrMetallicRoughness" : {
                "metallicFactor" : 0.0
            }
        }
    ],
    "meshes" : [
        {
            "name" : "Suzanne",
            "primitives" : [
                {
                    "attributes" : {
                        "NORMAL" : 2,
                        "POSITION" : 1
                    },
                    "indices" : 0,
                    "material" : 0
                }
            ]
        }
    ],
    "nodes" : [
        {
            "camera" : 0,
            "name" : "Correction_Camera",
            "rotation" : [
                -0.7071067690849304,
                -0.0,
                0.0,
                0.7071067690849304
            ]
        },
        {
            "children" : [
                0
            ],
            "name" : "Camera",
            "translation" : [
                0.1456584930419922,
                5.648856163024902,
                -0.03726857900619507
            ]
        },
        {
            "name" : "Point",
            "translation" : [
                -0.8142529726028442,
                -3.9567595422340673e-07,
                -1.3437979221343994
            ]
        },
        {
            "name" : "Point.001",
            "translation" : [
                0.802069902420044,
                -3.9567595422340673e-07,
                0.9977977275848389
            ]
        },
        {
            "name" : "Point.002",
            "translation" : [
                -1.1043622493743896,
                2.237985134124756,
                -0.049082279205322266
            ]
        },
        {
            "mesh" : 0,
            "name" : "Suzanne"
        }
    ],
    "scene" : 0,
    "scenes" : [
        {
            "name" : "Scene",
            "nodes" : [
                1,
                4,
                3,
                2,
                5
            ]
        }
    ]
}
