{
    "accessors" : [
        {
            "bufferView" : 0,
            "componentType" : 5123,
            "count" : 47232,
            "max" : [
                7957
            ],
            "min" : [
                0
            ],
            "type" : "SCALAR"
        },
        {
            "bufferView" : 1,
            "componentType" : 5126,
            "count" : 7958,
            "max" : [
                1.330683946609497,
                0.9259806871414185,
                0.8449337482452393
            ],
            "min" : [
                -1.330683946609497,
                -0.8786324858665466,
                -0.8301213383674622
            ],
            "type" : "VEC3"
        },
        {
            "bufferView" : 2,
            "componentType" : 5126,
            "count" : 7958,
            "max" : [
                0.99993896484375,
                0.999969482421875,
                0.999969482421875
            ],
            "min" : [
                -0.99993896484375,
                -0.999908447265625,
                -0.99993896484375
            ],
            "type" : "VEC3"
        }
    ],
    "asset" : {
        "generator" : "Khronos Blender glTF 2.0 exporter",
        "version" : "2.0"
    },
    "bufferViews" : [
        {
            "buffer" : 0,
            "byteLength" : 94464,
            "byteOffset" : 0,
            "target" : 34963
        },
        {
            "buffer" : 0,
            "byteLength" : 95496,
            "byteOffset" : 94464,
            "target" : 34962
        },
        {
            "buffer" : 0,
            "byteLength" : 95496,
            "byteOffset" : 189960,
            "target" : 34962
        }
    ],
    "buffers" : [
        {
            "byteLength" : 285456,
            "uri" : "test.bin"
        }
    ],
    "materials" : [
        {
            "name" : "Material.001",
            "pbrMetallicRoughness" : {
                "metallicFactor" : 0.0
            }
        }
    ],
    "meshes" : [
        {
            "name" : "Suzanne",
            "primitives" : [
                {
                    "attributes" : {
                        "NORMAL" : 2,
                        "POSITION" : 1
                    },
                    "indices" : 0,
                    "material" : 0
                }
            ]
        }
    ],
    "nodes" : [
        {
            "name" : "Point",
            "translation" : [
                -0.8142529726028442,
                1.3437979221343994,
                -3.9567595422340673e-07
            ]
        },
        {
            "name" : "Point.001",
            "translation" : [
                0.802069902420044,
                -0.9977977275848389,
                -3.9567595422340673e-07
            ]
        },
        {
            "name" : "Point.002",
            "translation" : [
                -1.1043622493743896,
                0.049082279205322266,
                2.237985134124756
            ]
        },
        {
            "mesh" : 0,
            "name" : "Suzanne"
        }
    ],
    "scene" : 0,
    "scenes" : [
        {
            "name" : "Scene",
            "nodes" : [
                2,
                1,
                0,
                3
            ]
        }
    ]
}
