{
    "asset" : {
        "generator" : "Khronos glTF Blender I/O v1.0.5",
        "version" : "2.0"
    },
    "scene" : 0,
    "scenes" : [
        {
            "name" : "Scene",
            "nodes" : [
                0
            ]
        }
    ],
    "nodes" : [
        {
            "mesh" : 0,
            "name" : "fish_Cube",
            "rotation" : [
                0.7071068286895752,
                0,
                0,
                0.7071067094802856
            ]
        }
    ],
    "materials" : [
        {
            "doubleSided" : true,
            "emissiveFactor" : [
                1,
                1,
                1
            ],
            "emissiveTexture" : {
                "index" : 0,
                "texCoord" : 0
            },
            "name" : "Material.001",
            "pbrMetallicRoughness" : {}
        }
    ],
    "meshes" : [
        {
            "name" : "fish_Cube",
            "primitives" : [
                {
                    "attributes" : {
                        "POSITION" : 0,
                        "NORMAL" : 1,
                        "TEXCOORD_0" : 2
                    },
                    "indices" : 3,
                    "material" : 0
                }
            ]
        }
    ],
    "textures" : [
        {
            "source" : 0
        }
    ],
    "images" : [
        {
            "mimeType" : "image/png",
            "name" : "fish_texture",
            "uri" : "fish_texture.png"
        }
    ],
    "accessors" : [
        {
            "bufferView" : 0,
            "componentType" : 5126,
            "count" : 433,
            "max" : [
                0.09224499762058258,
                2.4801299571990967,
                0.6578199863433838
            ],
            "min" : [
                -0.1512169986963272,
                -2.5809459686279297,
                -1.4288179874420166
            ],
            "type" : "VEC3"
        },
        {
            "bufferView" : 1,
            "componentType" : 5126,
            "count" : 433,
            "type" : "VEC3"
        },
        {
            "bufferView" : 2,
            "componentType" : 5126,
            "count" : 433,
            "type" : "VEC2"
        },
        {
            "bufferView" : 3,
            "componentType" : 5123,
            "count" : 2016,
            "type" : "SCALAR"
        }
    ],
    "bufferViews" : [
        {
            "buffer" : 0,
            "byteLength" : 5196,
            "byteOffset" : 0
        },
        {
            "buffer" : 0,
            "byteLength" : 5196,
            "byteOffset" : 5196
        },
        {
            "buffer" : 0,
            "byteLength" : 3464,
            "byteOffset" : 10392
        },
        {
            "buffer" : 0,
            "byteLength" : 4032,
            "byteOffset" : 13856
        }
    ],
    "buffers" : [
        {
            "byteLength" : 17888,
            "uri" : "fish.bin"
        }
    ]
}
